<svg width="173" height="25" viewBox="0 0 173 25" fill="none" xmlns="http://www.w3.org/2000/svg">
<path fill-rule="evenodd" clip-rule="evenodd" d="M3.0738 0.605663C2.85809 0.658669 2.45105 0.816409 2.16927 0.956338C1.73669 1.17108 1.58193 1.28616 1.17494 1.69598C0.628347 2.24642 0.406615 2.59064 0.167072 3.26058C0.00906553 3.7025 0 3.76958 0 4.50101C0 5.23244 0.00906553 5.29952 0.167072 5.74144C0.406029 6.40973 0.627494 6.75379 1.1751 7.30722C1.6014 7.73804 1.7217 7.82555 2.21497 8.06323C2.52176 8.2111 2.94549 8.36996 3.15656 8.4163C3.69713 8.5349 4.446 8.52509 4.96396 8.39263C6.05667 8.11319 6.7848 7.57801 7.46796 6.55211C7.80248 6.04977 7.92785 5.90798 8.19555 5.72923C8.74647 5.36133 8.93396 5.32757 10.4251 5.32757C11.9163 5.32757 12.1038 5.36133 12.6547 5.72923C12.9224 5.90798 13.0478 6.04977 13.3823 6.55211C13.9146 7.35132 14.3949 7.78428 15.1323 8.1293C17.1065 9.05308 19.493 8.19948 20.4307 6.23413C20.9571 5.13096 20.9571 3.87106 20.4307 2.7679C19.493 0.802544 17.1065 -0.0510545 15.1323 0.872722C14.3959 1.21732 13.9145 1.65076 13.3848 2.44618C12.94 3.11415 12.6754 3.34228 12.1049 3.54993C11.8239 3.65216 11.6472 3.66917 10.6543 3.68965C8.64755 3.73097 8.2196 3.56321 7.46407 2.43871C6.78053 1.42145 6.05049 0.88728 4.96396 0.609395C4.42547 0.471653 3.62589 0.470106 3.0738 0.605663ZM17.6242 4.50101V5.30091H16.8243H16.0244V4.50101V3.70111H16.8243H17.6242V4.50101ZM9.46526 8.60966C6.99336 9.24793 5.72552 11.9419 6.81876 14.2331C7.75651 16.1985 10.143 17.0521 12.1172 16.1283C12.8545 15.7833 13.3349 15.3503 13.8672 14.5511C14.2017 14.0488 14.327 13.907 14.5947 13.7282C15.1457 13.3603 15.3332 13.3266 16.8243 13.3266C18.3155 13.3266 18.503 13.3603 19.0539 13.7282C19.3216 13.907 19.447 14.0488 19.7815 14.5511C20.4647 15.577 21.1928 16.1122 22.2855 16.3916C22.8035 16.5241 23.5523 16.5339 24.0929 16.4153C24.304 16.3689 24.7277 16.2101 25.0345 16.0622C25.5278 15.8245 25.6481 15.737 26.0744 15.3062C26.622 14.7528 26.8434 14.4087 27.0824 13.7404C27.2404 13.2985 27.2495 13.2314 27.2495 12.5C27.2495 11.7686 27.2404 11.7015 27.0824 11.2596C26.8426 10.5889 26.6211 10.2453 26.0716 9.69209C25.6441 9.26169 25.5209 9.17215 25.0317 8.9364C24.7264 8.78932 24.304 8.63105 24.0929 8.58471C23.5523 8.46611 22.8035 8.47592 22.2855 8.60839C21.1942 8.8875 20.4646 9.42321 19.784 10.4452C19.3392 11.1131 19.0746 11.3413 18.5041 11.5489C18.2231 11.6511 18.0464 11.6682 17.0535 11.6886C15.0467 11.73 14.6188 11.5622 13.8633 10.4377C13.1797 9.42044 12.4497 8.88627 11.3632 8.60839C10.8082 8.46648 10.0178 8.46702 9.46526 8.60966ZM11.225 12.5V13.2999H10.4251H9.62524V12.5V11.7001H10.4251H11.225V12.5ZM3.0738 16.6036C2.85809 16.6566 2.45105 16.8144 2.16927 16.9543C1.73669 17.1691 1.58193 17.2841 1.17494 17.694C0.628347 18.2444 0.406615 18.5886 0.167072 19.2586C0.00906553 19.7005 0 19.7676 0 20.499C0 21.2304 0.00906553 21.2975 0.167072 21.7394C0.406029 22.4077 0.627494 22.7518 1.1751 23.3052C1.6014 23.736 1.7217 23.8235 2.21497 24.0612C2.52176 24.2091 2.94549 24.3679 3.15656 24.4143C3.69713 24.5329 4.446 24.5231 4.96396 24.3906C6.05667 24.1112 6.7848 23.576 7.46796 22.5501C7.80248 22.0478 7.92785 21.906 8.19555 21.7272C8.74647 21.3593 8.93396 21.3256 10.4251 21.3256C11.9163 21.3256 12.1038 21.3593 12.6547 21.7272C12.9224 21.906 13.0478 22.0478 13.3823 22.5501C13.9146 23.3493 14.3949 23.7823 15.1323 24.1273C17.1065 25.0511 19.493 24.1975 20.4307 22.2321C20.9571 21.1289 20.9571 19.869 20.4307 18.7659C19.493 16.8005 17.1065 15.9469 15.1323 16.8707C14.3959 17.2153 13.9145 17.6487 13.3848 18.4442C12.94 19.1121 12.6754 19.3403 12.1049 19.5479C11.8239 19.6501 11.6472 19.6671 10.6543 19.6876C8.64755 19.729 8.2196 19.5612 7.46407 18.4367C6.78053 17.4194 6.05049 16.8853 4.96396 16.6074C4.42547 16.4696 3.62589 16.4681 3.0738 16.6036ZM17.6242 20.499V21.2989H16.8243H16.0244V20.499V19.6991H16.8243H17.6242V20.499Z" fill="white"/>
<path d="M33.8741 5.14745H42.9747V7.71327H36.5802V11.2012H42.3332V13.767H36.5802V19.5H33.8741V5.14745ZM52.4416 18.2171H52.2812C51.9738 18.7115 51.5596 19.1058 51.0384 19.3998C50.5172 19.6804 49.9225 19.8207 49.2543 19.8207C48.0115 19.8207 47.0827 19.4399 46.468 18.6781C45.8666 17.9164 45.566 16.9008 45.566 15.6312V9.67773H48.1919V15.3105C48.1919 16.0188 48.3456 16.5466 48.653 16.8941C48.9737 17.2282 49.4347 17.3952 50.0361 17.3952C50.3969 17.3952 50.711 17.3217 50.9782 17.1747C51.2589 17.0144 51.4927 16.8072 51.6798 16.5533C51.8803 16.286 52.0273 15.9787 52.1208 15.6312C52.2277 15.2704 52.2812 14.8895 52.2812 14.4886V9.67773H54.9071V19.5H52.4416V18.2171ZM59.6436 11.9228H57.9197V9.67773H59.6436V6.67091H62.2695V9.67773H64.675V11.9228H62.2695V15.7315C62.2695 15.9586 62.2896 16.1725 62.3297 16.3729C62.3831 16.56 62.4767 16.7204 62.6103 16.854C62.7974 17.0678 63.0647 17.1747 63.4121 17.1747C63.6393 17.1747 63.8197 17.1547 63.9534 17.1146C64.087 17.0611 64.2139 16.9943 64.3342 16.9141L65.0759 19.2194C64.7685 19.3664 64.4344 19.4733 64.0736 19.5401C63.7262 19.6203 63.3386 19.6604 62.911 19.6604C62.4165 19.6604 61.9689 19.5869 61.5679 19.4399C61.1804 19.2795 60.853 19.0657 60.5857 18.7984C59.9576 18.197 59.6436 17.3418 59.6436 16.2326V11.9228ZM74.7088 18.2171H74.5484C74.241 18.7115 73.8268 19.1058 73.3056 19.3998C72.7844 19.6804 72.1897 19.8207 71.5215 19.8207C70.2787 19.8207 69.3499 19.4399 68.7352 18.6781C68.1338 17.9164 67.8332 16.9008 67.8332 15.6312V9.67773H70.4591V15.3105C70.4591 16.0188 70.6128 16.5466 70.9202 16.8941C71.2409 17.2282 71.7019 17.3952 72.3033 17.3952C72.6641 17.3952 72.9782 17.3217 73.2454 17.1747C73.5261 17.0144 73.7599 16.8072 73.947 16.5533C74.1475 16.286 74.2945 15.9787 74.388 15.6312C74.4949 15.2704 74.5484 14.8895 74.5484 14.4886V9.67773H77.1743V19.5H74.7088V18.2171ZM80.7304 9.67773H83.196V11.0408H83.3564C83.4767 10.8003 83.637 10.5798 83.8375 10.3793C84.0379 10.1789 84.2584 10.0051 84.499 9.85814C84.7529 9.71114 85.0202 9.59755 85.3008 9.51736C85.5948 9.43718 85.8821 9.39709 86.1628 9.39709C86.5102 9.39709 86.8042 9.4305 87.0448 9.49732C87.2987 9.56414 87.5125 9.651 87.6862 9.75791L86.9846 12.1433C86.8243 12.0631 86.6439 12.003 86.4434 11.9629C86.2563 11.9095 86.0224 11.8827 85.7418 11.8827C85.381 11.8827 85.0536 11.9562 84.7596 12.1032C84.4656 12.2369 84.2117 12.4306 83.9979 12.6845C83.7974 12.9385 83.637 13.2391 83.5168 13.5866C83.4099 13.9207 83.3564 14.2882 83.3564 14.6891V19.5H80.7304V9.67773ZM98.8944 17.1346C98.44 17.9365 97.8253 18.5846 97.0502 19.079C96.2885 19.5735 95.353 19.8207 94.2438 19.8207C93.4955 19.8207 92.8005 19.6938 92.1591 19.4399C91.531 19.1726 90.9831 18.8051 90.5154 18.3374C90.0476 17.8696 89.6801 17.3217 89.4129 16.6936C89.159 16.0522 89.032 15.3506 89.032 14.5889C89.032 13.8806 89.159 13.2124 89.4129 12.5843C89.6668 11.9429 90.0209 11.3883 90.4753 10.9205C90.9296 10.4395 91.4642 10.0586 92.0789 9.77795C92.707 9.49732 93.3952 9.357 94.1436 9.357C94.932 9.357 95.6336 9.49064 96.2484 9.75791C96.8631 10.0118 97.3776 10.3726 97.7919 10.8404C98.2061 11.2947 98.5202 11.836 98.734 12.464C98.9478 13.0921 99.0547 13.7737 99.0547 14.5087C99.0547 14.6022 99.0547 14.6824 99.0547 14.7492C99.0414 14.8294 99.0347 14.9029 99.0347 14.9697C99.0213 15.0365 99.0146 15.11 99.0146 15.1902H91.6179C91.6713 15.5911 91.7782 15.9386 91.9386 16.2326C92.1123 16.5132 92.3195 16.7538 92.56 16.9542C92.8139 17.1413 93.0879 17.2816 93.3819 17.3752C93.6759 17.4554 93.9765 17.4955 94.2839 17.4955C94.8853 17.4955 95.3797 17.3618 95.7673 17.0945C96.1682 16.8139 96.4822 16.4665 96.7094 16.0522L98.8944 17.1346ZM96.509 13.326C96.4956 13.1523 96.4355 12.9585 96.3285 12.7447C96.235 12.5309 96.088 12.3304 95.8875 12.1433C95.7005 11.9562 95.4599 11.8025 95.1659 11.6823C94.8853 11.562 94.5445 11.5019 94.1436 11.5019C93.5823 11.5019 93.0879 11.6622 92.6602 11.983C92.2326 12.3037 91.9319 12.7514 91.7582 13.326H96.509ZM106.749 19.8207C106.134 19.8207 105.546 19.7339 104.985 19.5601C104.424 19.3864 103.909 19.1258 103.442 18.7784C102.974 18.4309 102.566 18.01 102.219 17.5155C101.871 17.0077 101.597 16.4197 101.397 15.7515L103.943 14.7492C104.13 15.4709 104.457 16.0722 104.925 16.5533C105.393 17.021 106.007 17.2549 106.769 17.2549C107.05 17.2549 107.317 17.2215 107.571 17.1547C107.838 17.0745 108.072 16.9676 108.273 16.834C108.486 16.687 108.653 16.5065 108.774 16.2927C108.894 16.0789 108.954 15.8317 108.954 15.551C108.954 15.2838 108.907 15.0432 108.814 14.8294C108.72 14.6156 108.56 14.4151 108.333 14.228C108.119 14.041 107.832 13.8605 107.471 13.6868C107.123 13.5131 106.689 13.3327 106.168 13.1456L105.286 12.8249C104.898 12.6912 104.504 12.5108 104.103 12.2836C103.716 12.0565 103.361 11.7825 103.041 11.4618C102.72 11.141 102.453 10.7669 102.239 10.3392C102.038 9.89823 101.938 9.40377 101.938 8.85586C101.938 8.29459 102.045 7.77341 102.259 7.29232C102.486 6.79786 102.8 6.37023 103.201 6.00941C103.615 5.63523 104.103 5.34791 104.664 5.14745C105.239 4.93364 105.874 4.82673 106.569 4.82673C107.29 4.82673 107.912 4.92695 108.433 5.12741C108.967 5.3145 109.415 5.56173 109.776 5.86909C110.15 6.16309 110.451 6.4905 110.678 6.85132C110.905 7.21214 111.072 7.55291 111.179 7.87364L108.794 8.87591C108.66 8.475 108.413 8.11418 108.052 7.79345C107.705 7.47273 107.224 7.31236 106.609 7.31236C106.021 7.31236 105.533 7.45268 105.145 7.73332C104.758 8.00059 104.564 8.35473 104.564 8.79573C104.564 9.22336 104.751 9.59086 105.125 9.89823C105.5 10.1922 106.094 10.4795 106.909 10.7602L107.812 11.0609C108.386 11.2613 108.907 11.4952 109.375 11.7625C109.856 12.0164 110.264 12.3237 110.598 12.6845C110.945 13.0454 111.206 13.4596 111.38 13.9274C111.567 14.3817 111.66 14.9096 111.66 15.511C111.66 16.2593 111.507 16.9075 111.199 17.4554C110.905 17.9899 110.524 18.4309 110.057 18.7784C109.589 19.1258 109.061 19.3864 108.473 19.5601C107.885 19.7339 107.31 19.8207 106.749 19.8207ZM114.795 9.67773H117.261V10.8604H117.421C117.661 10.4461 118.036 10.092 118.543 9.798C119.051 9.504 119.679 9.357 120.428 9.357C121.056 9.357 121.65 9.49064 122.212 9.75791C122.786 10.0118 123.288 10.3726 123.715 10.8404C124.156 11.2947 124.504 11.8426 124.758 12.4841C125.011 13.1255 125.138 13.8271 125.138 14.5889C125.138 15.3506 125.011 16.0522 124.758 16.6936C124.504 17.3351 124.156 17.8897 123.715 18.3574C123.288 18.8118 122.786 19.1726 122.212 19.4399C121.65 19.6938 121.056 19.8207 120.428 19.8207C119.679 19.8207 119.051 19.6737 118.543 19.3797C118.036 19.0857 117.661 18.7316 117.421 18.3173H117.261L117.421 19.7205V23.8298H114.795V9.67773ZM119.886 17.3952C120.234 17.3952 120.561 17.3284 120.869 17.1948C121.189 17.0611 121.47 16.874 121.711 16.6335C121.951 16.393 122.145 16.099 122.292 15.7515C122.439 15.404 122.512 15.0165 122.512 14.5889C122.512 14.1612 122.439 13.7737 122.292 13.4262C122.145 13.0788 121.951 12.7848 121.711 12.5442C121.47 12.3037 121.189 12.1166 120.869 11.983C120.561 11.8493 120.234 11.7825 119.886 11.7825C119.539 11.7825 119.205 11.8493 118.884 11.983C118.577 12.1032 118.303 12.2836 118.062 12.5242C117.822 12.7647 117.628 13.0587 117.481 13.4062C117.334 13.7536 117.261 14.1479 117.261 14.5889C117.261 15.0299 117.334 15.4241 117.481 15.7715C117.628 16.119 117.822 16.413 118.062 16.6535C118.303 16.8941 118.577 17.0812 118.884 17.2148C119.205 17.3351 119.539 17.3952 119.886 17.3952ZM127.927 5.14745H130.553V9.17659L130.393 10.9606H130.553C130.834 10.4929 131.235 10.112 131.756 9.81805C132.29 9.51068 132.885 9.357 133.54 9.357C134.809 9.357 135.745 9.73118 136.346 10.4795C136.961 11.2279 137.268 12.2502 137.268 13.5465V19.5H134.642V13.8672C134.642 13.1857 134.482 12.6712 134.161 12.3237C133.841 11.9629 133.393 11.7825 132.818 11.7825C132.457 11.7825 132.137 11.8627 131.856 12.023C131.575 12.17 131.335 12.3772 131.134 12.6445C130.947 12.9117 130.8 13.2258 130.693 13.5866C130.6 13.934 130.553 14.3082 130.553 14.7091V19.5H127.927V5.14745ZM150.045 17.1346C149.591 17.9365 148.976 18.5846 148.201 19.079C147.439 19.5735 146.504 19.8207 145.395 19.8207C144.646 19.8207 143.952 19.6938 143.31 19.4399C142.682 19.1726 142.134 18.8051 141.666 18.3374C141.199 17.8696 140.831 17.3217 140.564 16.6936C140.31 16.0522 140.183 15.3506 140.183 14.5889C140.183 13.8806 140.31 13.2124 140.564 12.5843C140.818 11.9429 141.172 11.3883 141.626 10.9205C142.081 10.4395 142.615 10.0586 143.23 9.77795C143.858 9.49732 144.546 9.357 145.295 9.357C146.083 9.357 146.785 9.49064 147.399 9.75791C148.014 10.0118 148.529 10.3726 148.943 10.8404C149.357 11.2947 149.671 11.836 149.885 12.464C150.099 13.0921 150.206 13.7737 150.206 14.5087C150.206 14.6022 150.206 14.6824 150.206 14.7492C150.192 14.8294 150.186 14.9029 150.186 14.9697C150.172 15.0365 150.166 15.11 150.166 15.1902H142.769C142.822 15.5911 142.929 15.9386 143.09 16.2326C143.263 16.5132 143.47 16.7538 143.711 16.9542C143.965 17.1413 144.239 17.2816 144.533 17.3752C144.827 17.4554 145.128 17.4955 145.435 17.4955C146.036 17.4955 146.531 17.3618 146.918 17.0945C147.319 16.8139 147.633 16.4665 147.86 16.0522L150.045 17.1346ZM147.66 13.326C147.647 13.1523 147.586 12.9585 147.48 12.7447C147.386 12.5309 147.239 12.3304 147.039 12.1433C146.851 11.9562 146.611 11.8025 146.317 11.6823C146.036 11.562 145.695 11.5019 145.295 11.5019C144.733 11.5019 144.239 11.6622 143.811 11.983C143.384 12.3037 143.083 12.7514 142.909 13.326H147.66ZM153.189 9.67773H155.655V11.0408H155.815C155.936 10.8003 156.096 10.5798 156.296 10.3793C156.497 10.1789 156.717 10.0051 156.958 9.85814C157.212 9.71114 157.479 9.59755 157.76 9.51736C158.054 9.43718 158.341 9.39709 158.622 9.39709C158.969 9.39709 159.263 9.4305 159.504 9.49732C159.758 9.56414 159.971 9.651 160.145 9.75791L159.444 12.1433C159.283 12.0631 159.103 12.003 158.902 11.9629C158.715 11.9095 158.481 11.8827 158.201 11.8827C157.84 11.8827 157.513 11.9562 157.219 12.1032C156.925 12.2369 156.671 12.4306 156.457 12.6845C156.256 12.9385 156.096 13.2391 155.976 13.5866C155.869 13.9207 155.815 14.2882 155.815 14.6891V19.5H153.189V9.67773ZM171.353 17.1346C170.899 17.9365 170.284 18.5846 169.509 19.079C168.747 19.5735 167.812 19.8207 166.703 19.8207C165.954 19.8207 165.26 19.6938 164.618 19.4399C163.99 19.1726 163.442 18.8051 162.974 18.3374C162.507 17.8696 162.139 17.3217 161.872 16.6936C161.618 16.0522 161.491 15.3506 161.491 14.5889C161.491 13.8806 161.618 13.2124 161.872 12.5843C162.126 11.9429 162.48 11.3883 162.934 10.9205C163.389 10.4395 163.923 10.0586 164.538 9.77795C165.166 9.49732 165.854 9.357 166.603 9.357C167.391 9.357 168.093 9.49064 168.707 9.75791C169.322 10.0118 169.837 10.3726 170.251 10.8404C170.665 11.2947 170.979 11.836 171.193 12.464C171.407 13.0921 171.514 13.7737 171.514 14.5087C171.514 14.6022 171.514 14.6824 171.514 14.7492C171.5 14.8294 171.494 14.9029 171.494 14.9697C171.48 15.0365 171.474 15.11 171.474 15.1902H164.077C164.13 15.5911 164.237 15.9386 164.398 16.2326C164.571 16.5132 164.778 16.7538 165.019 16.9542C165.273 17.1413 165.547 17.2816 165.841 17.3752C166.135 17.4554 166.436 17.4955 166.743 17.4955C167.344 17.4955 167.839 17.3618 168.226 17.0945C168.627 16.8139 168.941 16.4665 169.168 16.0522L171.353 17.1346ZM168.968 13.326C168.955 13.1523 168.894 12.9585 168.788 12.7447C168.694 12.5309 168.547 12.3304 168.347 12.1433C168.159 11.9562 167.919 11.8025 167.625 11.6823C167.344 11.562 167.003 11.5019 166.603 11.5019C166.041 11.5019 165.547 11.6622 165.119 11.983C164.692 12.3037 164.391 12.7514 164.217 13.326H168.968Z" fill="white"/>
</svg>
